<svg t="1721887873082" class="icon" viewBox="0 0 1024 1024" version="1.1" xmlns="http://www.w3.org/2000/svg" p-id="4282"
     width="21" height="21">
    <path d="M640 128H256c-35.413333 0-65.706667 21.333333-78.506667 52.053333l-128.853333 300.8c-3.84 9.813333-5.973333 20.053333-5.973333 31.146667v81.493333l0.426666 0.426667L42.666667 597.333333c0 46.933333 38.4 85.333333 85.333333 85.333334h269.226667l-40.533334 194.986666-1.28 13.653334c0 17.493333 7.253333 33.706667 18.773334 45.226666L419.413333 981.333333l281.173334-281.173333c15.36-15.36 24.746667-36.693333 24.746666-60.16V213.333333c0-46.933333-38.4-85.333333-85.333333-85.333333z m170.666667 0v512h170.666666V128h-170.666666z"
          fill="#9f9f9f" p-id="4283"></path>
</svg>
