<svg t="1721614501323" class="icon" viewBox="0 0 1024 1024" version="1.1" xmlns="http://www.w3.org/2000/svg" p-id="4297"
     width="13" height="13">
    <path d="M393.216 856.512l90.656-108.48h377.12V201.856H167.744v546.144h134.88l19.552 23.488 71.008 84.992zM116.512 150.624h795.648v648.608H507.776l-4.224 5.056-110.368 132.096-114.56-137.184H116.48V150.656z m249.536 323.936c0 28.64-22.112 51.872-49.44 51.872s-49.44-23.232-49.44-51.872 22.112-51.872 49.44-51.872 49.44 23.232 49.44 51.872z m205.952 0c0 28.64-22.144 51.872-49.44 51.872s-49.44-23.232-49.44-51.872 22.112-51.872 49.44-51.872 49.44 23.232 49.44 51.872z m206.016 0c0 28.64-22.144 51.872-49.44 51.872s-49.44-23.232-49.44-51.872 22.144-51.872 49.44-51.872 49.44 23.232 49.44 51.872z"
          p-id="4298" fill="rgb(159, 159, 159)"></path>
</svg>
