<svg t="1721614607195" class="icon" viewBox="0 0 1024 1024" version="1.1" xmlns="http://www.w3.org/2000/svg" p-id="2314"
     width="13" height="13">
    <path d="M814.944 375.456c103.648 0 142.144 64.576 119.648 148.128l-46.016 172.896-46.08 172.864-5.856 22.176H81.088V404h275.872l79.872-241.024c1.92-9.12 6.24-20.192 14.464-31.392 15.264-20.768 39.008-33.44 69.984-33.44 33.248 0 56.96 16.544 69.28 42.336 6.784 14.272 8.928 27.808 8.928 38.24v196.768h215.456z m-24.256 456.352z m40.128-150.688l46.08-172.96c13.088-48.672-1.376-72.992-61.952-72.992h-275.168V178.656a33.536 33.536 0 0 0-3.232-12.704l0.096 0.192c-2.848-5.92-6.304-8.32-15.36-8.32-11.424 0-17.536 3.264-21.856 9.088a24.864 24.864 0 0 0-4.128 8.288l-0.032 0.192-1.12 4.512-94.048 283.808H140.832v368.064H790.72l40.096-150.656zM281.6 439.456V883.2h59.744V439.456z"
          fill="rgb(159, 159, 159)" p-id="2315"></path>
</svg>
