<svg t="1721893556739" class="icon" viewBox="0 0 1024 1024" version="1.1" xmlns="http://www.w3.org/2000/svg" p-id="5612"
     id="mx_n_1721893556741" width="21" height="21">
    <path d="M960 160v704c0 53.02-42.98 96-96 96H160c-53.02 0-96-42.98-96-96V160c0-53.02 42.98-96 96-96h704c53.02 0 96 42.98 96 96zM672 592c-29.124 0-55.646 11.122-75.566 29.342l-135.916-81.55a112.678 112.678 0 0 0 0-55.586l135.916-81.55C616.354 420.878 642.876 432 672 432c61.856 0 112-50.144 112-112s-50.144-112-112-112-112 50.144-112 112c0 9.594 1.21 18.906 3.48 27.794l-135.916 81.55C407.646 411.122 381.124 400 352 400c-61.856 0-112 50.144-112 112s50.144 112 112 112c29.124 0 55.646-11.122 75.566-29.342l135.916 81.55a112.176 112.176 0 0 0-3.48 27.794c0 61.856 50.144 112 112 112s112-50.144 112-112C784 642.144 733.856 592 672 592z"
          fill="#101010" p-id="5613"></path>
</svg>
