<svg t="1721614659060" class="icon" viewBox="0 0 1038 1024" version="1.1" xmlns="http://www.w3.org/2000/svg" p-id="3463"
     width="13" height="13">
    <path d="M511.104 284.672c-124.928 0-221.472 96.608-221.472 221.536s96.544 221.408 221.472 221.408c124.928 0 221.472-96.544 221.472-221.472s-96.544-221.536-221.472-221.536z m0 386.144c-96.544 0-164.704-68.128-164.704-164.672 0-96.576 68.16-164.832 164.704-164.832s164.704 68.128 164.704 164.704c0 96.48-68.16 164.64-164.704 164.64z m0-511.072c-232.8 0-431.584 141.984-511.072 346.464 79.52 204.384 278.24 346.336 511.072 346.336 232.8 0 431.584-141.984 511.072-346.4C942.784 301.696 744 159.68 511.2 159.68z m0 636c-198.752 0-369.12-113.568-448.608-289.6 79.52-176.128 249.856-289.728 448.608-289.728s369.12 113.632 448.576 289.76c-79.456 176-249.856 289.568-448.576 289.568z"
          p-id="3464" fill="rgb(159, 159, 159)"></path>
</svg>
