<svg t="1721360352182" class="icon" viewBox="0 0 1024 1024" version="1.1" xmlns="http://www.w3.org/2000/svg" p-id="2711"
     width="24" height="24">
    <path d="M752 372h-40v-80c0-110-90-200-200-200S312 182 312 292v80h-40c-44.004 0-80 35.996-80 80v400c0 44.004 35.996 80 80 80h480c44.004 0 80-35.996 80-80V452c0-44.004-35.996-80-80-80zM512 736c-44.004 0-80-35.996-80-80s35.996-80 80-80 80 35.996 80 80-35.996 80-80 80z m124.004-364H387.996v-80c0-68.008 56.006-124.004 124.004-124.004 68.008 0 124.004 55.996 124.004 124.004v80z"
          p-id="2712" fill="#ffffff"></path>
</svg>
